<?xml version="1.0"?>
<svg xmlns:rdf="http://www.w3.org/1999/02/22-rdf-syntax-ns#" xmlns="http://www.w3.org/2000/svg" xmlns:cc="http://creativecommons.org/ns#" xmlns:dc="http://purl.org/dc/elements/1.1/" xmlns:svg="http://www.w3.org/2000/svg" id="svg3135" viewBox="0 0 576 448" version="1.1">
  <g id="g3145" transform="translate(-15.186 3.7966)">
    <path id="path3159" d="m154 397.84c-17.03-1.19-38.86-6.14-54.5-12.34-17.863-7.09-23.075-11.38-29.5-24.27-1.925-3.8619-4.2894-7.2514-5.2541-7.5322-1.1165-0.32493-1.532-1.0894-1.143-2.103 0.461-1.2-0.019-1.59-1.96-1.59-3.556 0-8.4812-6.9063-6.1462-8.6184 1.3601-0.99724 1.3617-1.2542 0.01424-2.3724-1.8413-1.5281-1.9843-4.8904-0.23661-5.561 0.8278-0.31766 1.1436-1.8612 0.90113-4.404-0.20534-2.1532 0.15604-5.519 0.80308-7.4796 1.0864-3.2919 2.1112-3.9713 5.7798-3.8318 0.69216 0.0263 1.5367-1.0606 1.8767-2.4154 0.7556-3.0106 4.6876-4.7573 7.1904-3.1942 1.3218 0.82549 3.3657 0.67059 8.2169-0.62273 3.552-0.95 8.258-2.1 10.458-2.56 2.2-0.4625 8.725-2.459 14.5-4.4366 14.097-4.8275 25.38-7.4859 31.808-7.4944 2.9197-0.004 10.57-1.3124 17-2.908 22.931-5.6897 46.245-9.826 76.692-13.607 9.9703-1.238 73.852-16.33 87.5-20.671 3.575-1.1373 18.875-8.0319 34-15.321 15.125-7.2894 31.1-14.748 35.5-16.574 4.4-1.8261 14.075-7.394 21.5-12.373 12.205-8.1844 14.048-9.8204 19.209-17.053 3.14-4.4 9.5856-15.723 14.324-25.162 4.7379-9.4388 9.4813-17.946 10.541-18.905 1.0596-0.9589 1.9265-2.322 1.9265-3.0291 0-2.1492 12.056-16.422 15.899-18.822 1.9805-1.2369 8.4845-5.1364 14.453-8.6655 5.9689-3.5291 12.606-8.035 14.75-10.013 3.8548-3.5571 3.8975-3.6773 3.8986-11 0.00065-4.072 0.69603-10.779 1.5453-14.904 0.88308-4.2892 1.7985-15.757 2.1383-26.787 0.58695-19.052 0.62461-19.311 3.0896-21.25 1.3724-1.0796 3.4472-1.9561 4.6105-1.9478 2.2821 0.01624 9.1736 2.2101 10.216 3.252 0.35074 0.35074 1.2954-0.01999 2.0993-0.82385 1.819-1.819 3.8729-0.83801 2.2755 1.0868-0.89896 1.0832-0.36201 1.4891 2.7014 2.0423 4.8825 0.88168 5.8685 1.4728 4.1885 2.5111-1.068 0.66006-1.0923 1.0895-0.11677 2.065 0.9755 0.9755 1.9284 0.89938 4.582-0.36605 1.9081-0.90991 3.9078-1.2531 4.6454-0.79732 1.8124 1.1201 0.45094 6.0912-2.2381 8.1715-2.0576 1.5918-2.137 2.3725-2.0355 20 0.0581 10.089 0.5801 22.588 1.16 27.776l1.0543 9.4328 6.4463 6.5672c9.3631 9.5388 12.806 15.686 13.39 23.905 0.52573 7.4067-1.3492 20.713-5.7272 40.648-4.442 20.226-11.131 37.031-19.861 49.902-2.6536 3.912-6.7847 10.488-9.1802 14.613-9.0179 15.529-23.017 33.458-31.888 40.841-3.129 2.604-11.743 9.2701-19.142 14.813-11.62 8.7056-15.906 11.201-31.453 18.312-9.9 4.5285-25.2 11.629-34 15.778-22.733 10.719-28.97 13.3-56.377 23.325-31.181 11.406-44.462 14.68-85.076 20.972-12.538 1.9425-19.367 3.4186-50.547 10.926-19.457 4.6847-43.759 6.4654-66.5 4.8727zm45-6.9593c5.225-0.56093 20.3-3.6416 33.5-6.8458 13.2-3.2043 30.525-6.8124 38.5-8.0181 38.168-5.7702 52.015-9.1547 82-20.043 25.008-9.0805 34.406-12.94 53.5-21.972 7.15-3.382 22-10.224 33-15.204 20.634-9.3418 24.685-11.843 46.465-28.69 16.071-12.431 21.077-18.68 44.904-56.053 13.358-20.952 20.517-41.465 25.582-73.296 3.1695-19.919 1.4033-26.33-10.37-37.64-5.0982-4.8974-7.1584-7.6627-7.9134-10.621-1.6736-6.5591-3.223-38.183-2.3884-48.75 0.61945-7.8429 0.50931-9.75-0.5631-9.75-0.73325 0-1.0546 0.45084-0.71399 1.0019 1.1335 1.834-4.6608 3.2605-7.4728 1.8397-1.39-0.701-2.87-1.44-3.28-1.641s-0.75 3.582-0.75 8.407c0 9.408-1.8 20.394-3.34 20.394-0.55228 0-0.68892-2.425-0.33007-5.8583 0.33677-3.222 0.90947-10.086 1.2727-15.253l0.66036-9.3944-3.6641-1.7473c-2.02-0.961-3.88-1.747-4.13-1.747-0.91104 0-0.4492 3.8924 0.53393 4.5 1.4819 0.91587 1.2118 2.5-0.42623 2.5-1.1486 0-1.5079 2.7738-1.8459 14.25-0.37547 12.749-2.2078 35.638-3.3174 41.441-0.70062 3.664-7.1547 8.7968-23.204 18.454-14.071 8.4666-15.798 9.83-21.258 16.785-3.9193 4.9929-8.8281 13.476-14.419 24.919-9.1142 18.654-17.075 31.457-23.199 37.314-6.894 6.5923-25.538 18.045-40.83 25.082-8.25 3.7963-25.125 11.769-37.5 17.717-12.375 5.9478-24.75 11.52-27.5 12.384-5.6858 1.7848-62.116 15.749-73.5 18.188-4.125 0.88382-12.45 2.2316-18.5 2.9952-42.676 5.3857-51.605 6.8817-74.975 12.561-6.5862 1.6007-14.321 2.9104-17.188 2.9104-6.3899 0-15.166 1.9834-29.174 6.593-5.8649 1.9301-12.688 3.8833-15.164 4.3406-9.1028 1.6817-17.481 4.3404-18.692 5.9316-0.68431 0.89913-1.2634 3.4348-1.2868 5.6348-0.02344 2.2-0.68398 6.1134-1.4679 8.6964-1.331 4.3858-1.2924 4.8653 0.5834 7.25 1.551 1.98 2.908 2.56 5.995 2.56 4.519 0 13.865 2.77 13.865 4.12 0 1.2732-1.5567 1.097-5.7368-0.6496-2.1526-0.89939-4.8415-1.2778-6.4969-0.91417-1.8893 0.41497-4.1178-0.0539-6.7315-1.4162-3.5869-1.8696-3.9388-1.8971-4.2929-0.33583-0.88072 3.8825 7.7106 21.215 13.4 27.035 3.5651 3.6464 5.8978 5.0143 13.95 8.1801 31.709 12.46 63.999 16.15 103.91 11.86zm-70.788-41.824c-5.4356-1.8517-6.8991-2.7041-6.0687-3.5344 0.26195-0.26195 2.8168 0.41305 5.6774 1.5 5.7535 2.1862 11.888 2.4519 23.771 1.0295 21.88-2.619 35.858-4.0328 44.988-4.5502 5.5436-0.31413 15.894-1.6352 23-2.9358 16.001-2.9284 26.278-4.1006 24.921-2.8426-1.6094 1.4921-37.514 7.1105-56 8.763-9.35 0.8358-23.3 2.1797-31 2.9864-17.874 1.8726-22.775 1.803-29.288-0.41587zm151.33-19.918c0.57291-0.61813 3.7229-1.5867 7-2.1523 3.2771-0.56565 8.4334-1.4766 11.458-2.0244 3.025-0.54777 10.45-2.822 16.5-5.0538s15.725-5.7882 21.5-7.9032c5.775-2.1149 14.55-5.7565 19.5-8.0925 9.0132-4.2534 20.506-8.2419 21.341-7.4064 0.24465 0.24466-0.40708 0.74438-1.4483 1.1105-5.1789 1.821-19.235 7.7741-23.711 10.042-2.7826 1.41-10.037 4.2572-16.121 6.3271-20.343 6.9212-31.441 10.877-33.286 11.864-1.006 0.53842-5.1921 1.4511-9.3024 2.0282-4.1102 0.57709-9.0482 1.3495-10.973 1.7165-2.5665 0.48928-3.2222 0.36749-2.4584-0.45664zm122.26-48.11c3.89-3.52 11.2-8.49 11.2-7.61 0 0.71671-13.754 11.578-14.611 11.539-0.48877-0.0226 1.047-1.7918 3.413-3.9317zm38.017-32.752c1.2548-1.7734 5.7288-6.2734 9.9422-10s10.041-8.9785 12.95-11.671c3.3027-3.0565 5.2894-4.3176 5.2894-3.3577 0 1.6615-6.2312 7.6564-21.051 20.253-6.3732 5.417-8.6756 6.959-7.1308 4.7757zm33.527-42.252c0.32742-1.6371 1.7194-4.6752 3.0933-6.7513s3.3496-6.2491 4.3905-9.2734c4.1043-11.925 18.662-35.809 20.637-33.858 0.66494 0.65696-5.3298 10.773-8.5094 14.359-0.97522 1.1-3.6313 6.275-5.9024 11.5-9.6142 22.119-15.333 32.14-13.709 24.023zm33.904-70.118c0.30899-1.873 2.0536-6.5555 3.8769-10.405 2.4627-5.2001 3.4022-6.4412 3.6538-4.8268 0.18625 1.1953-0.52723 3.8953-1.5855 6s-2.4679 5.508-3.1324 7.5628c-1.6275 5.0323-3.5564 6.1771-2.8127 1.6694zm24.61-82.965c-0.75-0.419-3.16-1.048-5.36-1.398l-4-0.63568 3.4179 1.9068c1.8798 1.0488 4.2936 1.6778 5.364 1.3979 1.4906-0.38981 1.6269-0.68733 0.58214-1.2712zm-11.86-7.945c-0.825-0.53316-2.4-0.93141-3.5-0.88501-1.6476 0.0695-1.5596 0.22542 0.5 0.88501 3.5357 1.1323 4.7521 1.1323 3 0z" fill="#cfcfcf"/>
    <path id="path3157" d="m147 397.02c-14.59-1.32-36.34-7.04-52.454-13.8-13.262-5.56-18.175-9.94-24.079-21.47-2.182-4.26-4.529-7.74-5.217-7.75-0.688 0-1.25-0.9-1.25-2 0-1.32-0.667-2-1.96-2-2.374 0-7.04-4.8-7.04-7.24 0-0.97 0.429-1.76 0.953-1.76 0.52442 0 0.18692-1.3723-0.75-3.0496-1.5072-2.6983-1.5307-3.1879-0.20349-4.25 0.91691-0.73375 1.5187-2.9496 1.548-5.7004 0.08355-7.8259 1.0669-10 4.523-10 2.4954 0 3.2253-0.55178 4.1183-3.1132 1.0331-2.9635 1.2831-3.084 5.198-2.5052 4.9373 0.72997 16.359-1.8381 35.613-8.0075 17.134-5.4901 25.135-7.3407 31.819-7.3592 2.9253-0.008 9.6753-1.1135 15-2.4564 18.463-4.6564 37.781-8.351 57.681-11.031 11-1.4816 25.625-3.8164 32.5-5.1884 18.871-3.7659 72.191-17.051 79.548-19.82 3.5625-1.3409 15.134-6.6808 25.715-11.866 10.581-5.1856 25.987-12.512 34.237-16.281 16.144-7.3754 36.017-19.756 41.19-25.662 5.9853-6.8329 11.566-15.973 18.986-31.096 11.572-23.585 21.826-37.399 32.108-43.254 13.545-7.7134 22.02-13.091 25.297-16.051 3.6184-3.269 3.6557-3.384 4.2345-13.053 0.32118-5.365 1.2822-14.03 2.1356-19.255 0.86713-5.3091 1.5952-16.229 1.6505-24.753l0.0989-15.253 2.8039-1.9965c3.3633-2.3949 4.64-2.4607 9.373-0.48311 4.6754 1.9535 4.6204 2.8655-0.12788 2.1217l-3.75-0.58746 3.9304 1.4863c2.1617 0.81746 4.7074 1.2397 5.6569 0.93833 3.0034-0.95324 10.677 1.4971 10.537 3.3648-0.0954 1.2753 0.57489 1.5847 2.8756 1.3275 6.3273-0.70734 6.9454-0.62636 7.2664 0.95203 0.18086 0.88916-0.93009 3.1164-2.4688 4.9495l-2.82 3.329 0.16483 19.551c0.0907 10.753 0.61768 23.103 1.1712 27.446l1.0063 7.8955 6.479 6.6045c7.7281 7.8779 12.534 16.09 13.325 22.767 1.1817 9.9775-5.9488 47.201-12.299 64.206-4.3428 11.629-9.4603 22.055-13.807 28.132-1.7707 2.475-4.9458 7.425-7.0559 11-13.054 22.116-25.434 37.359-38.771 47.734-25.857 20.116-25.431 19.856-54.494 33.252-15.246 7.0273-31.994 14.798-37.219 17.268-18.792 8.8844-64.411 25.665-79.217 29.139-14.751 3.4613-29.632 6.3261-42.283 8.14-14.863 2.131-27.578 4.7404-49 10.056-9.9 2.4565-23.622 5.1288-30.494 5.9385-12.659 1.4916-38.27 1.734-52.006 0.49228zm42.671-5.0298c15.042-1.1475 18.926-1.8599 47.829-8.773 11.55-2.7626 27.525-6.0142 35.5-7.2259 36.872-5.6022 50.813-9.0794 81.955-20.442 25.614-9.3454 30.077-11.18 50.545-20.776 9.9-4.6414 26.605-12.376 37.122-17.188 16.786-7.6799 20.757-9.9765 32.5-18.795 27.197-20.425 30.307-24.005 55.633-64.058 12.524-19.807 17.973-33.79 23.274-59.733 1.742-8.525 3.4124-19.866 3.712-25.203 0.51774-9.2219 0.40347-9.9826-2.3032-15.332-1.623-3.2078-5.2774-7.8781-8.4963-10.858-8.885-8.226-8.8183-8.0411-10.372-28.718-1.2406-16.512-1.2734-22.984-0.18519-36.455 0.32577-4.0325 0.2891-4.0803-4.4122-5.75-2.6074-0.92606-5.8053-1.6808-7.1064-1.6771-2.294 0.0064-2.2769 0.0652 0.5653 1.9388 1.9488 1.2846 3.8758 1.7432 5.75 1.3684 3.5244-0.70488 3.8035 1.2805 0.39806 2.8321-1.9943 0.90868-2.9386 0.73432-5.3597-0.98962l-2.9388-2.0926-0.68388 10.808c-1.0597 16.747-2.4578 18.693-1.8421 2.5634l0.53688-14.065-3.5824-2.1136c-3.0917-1.8241-3.7469-1.9154-4.7838-0.66602-0.95098 1.1459-0.85998 1.8249 0.4366 3.2576 2.06 2.256 2.1 3.159 0.16 3.159-1.2441 0-1.501 1.9192-1.5058 11.25-0.003 6.1875-0.47847 13.95-1.0562 17.25-0.57771 3.3-1.395 11.142-1.8161 17.427l-0.76575 11.427-4.539 4.0729c-2.4964 2.2401-9.4391 6.9739-15.428 10.519-5.989 3.5456-12.759 7.7006-15.045 9.2334-6.7489 4.5255-15.418 17.033-24.681 35.609-9.2108 18.471-13.727 26.068-19.886 33.457-5.9628 7.1527-24.606 18.884-45.277 28.492-9.9 4.6014-25.65 12.148-35 16.771-22.942 11.343-25.565 12.239-62.689 21.407-37.152 9.1753-46.734 11.057-74.311 14.593-24.267 3.1118-39.16 5.7264-54.9 9.6381-6.545 1.6266-15.095 3.1726-19 3.4357-9.7866 0.65922-15.112 1.8335-29.6 6.5275-6.875 2.2274-14.75 4.4602-17.5 4.9619-9.2779 1.6927-15.912 3.9126-16.959 5.6748-0.57258 0.96378-1.3344 4.0023-1.6928 6.7523-0.35847 2.75-1.251 6.9578-1.9835 9.3508-1.3003 4.2482-1.266 4.4074 1.4575 6.75 2.0614 1.7731 4.0143 2.411 7.4835 2.4443 2.5818 0.0248 6.0442 0.70472 7.6942 1.5109 2.4714 1.2075 2.5595 1.352 0.5 0.81997-1.375-0.35521-4.973-0.85817-7.9956-1.1177-3.1982-0.2746-6.647-1.2918-8.25-2.4332-2.6173-1.8637-2.7621-1.8708-2.9099-0.14321-0.35038 4.096 0.44854 6.9516 3.8366 13.713 6.4128 12.799 9.736 16.462 18.771 20.691 27.507 12.876 60.611 17.849 99.219 14.904zm-45.17-42.53c12.588-2.0973 50.486-5.7391 54.407-5.2282 1.4261 0.18584-1.6821 0.67691-6.9071 1.0912-10.163 0.80593-19.346 1.8016-38.556 4.1804-14.649 1.814-19.938 1.7882-8.9437-0.0435zm64.5-6.46c1.375-0.44035 4.075-0.79375 6-0.78532l3.5 0.0153-4 0.82737c-2.2 0.45505-4.9 0.80845-6 0.78532-1.6175-0.034-1.5219-0.19516 0.5-0.84269zm14.5-2.5228c2.75-0.70686 6.35-1.2843 8-1.2832 1.65 0.001 0.075 0.60514-3.5 1.3423-8.1829 1.6874-11.143 1.6485-4.5-0.0591zm12.769-2.1702c0.97297-0.25354 2.323-0.23687 3 0.0371 0.67703 0.27393-0.11903 0.48137-1.769 0.46099-1.65-0.0204-2.2039-0.2445-1.231-0.49804zm44.73-9.31c0.825-0.53316 2.175-0.94464 3-0.9144 0.98906 0.0362 0.81874 0.34772-0.5 0.9144-2.7491 1.1813-4.328 1.1813-2.5 0zm5.75-1.6623c0.6875-0.27741 1.8125-0.27741 2.5 0s0.125 0.50439-1.25 0.50439-1.9375-0.22698-1.25-0.50439zm7.519-1.0307c0.97297-0.25354 2.323-0.23687 3 0.0371 0.67703 0.27393-0.11903 0.48137-1.769 0.46099-1.65-0.0204-2.2039-0.2445-1.231-0.49804zm151.34-83.457c0.49278-0.82193 4.496-4.5533 8.896-8.292s9.0125-7.8937 10.25-9.2334 2.25-1.9997 2.25-1.4667c0 0.53302-3.7125 4.4261-8.25 8.6513-8.9613 8.3445-14.616 12.792-13.146 10.341zm27.39-35.3c0-1.0762 2.5622-6.2364 4.1466-8.3511 0.94946-1.2673 2.6989-5.2269 3.8877-8.7992s3.3056-8.6105 4.7039-11.196c3.3865-6.2613 13.178-21.031 14.473-21.831 1.3347-0.82489-3.8252 8.101-7.3015 12.63-1.4774 1.925-4.324 7.325-6.3259 12-5.3372 12.464-11.973 25.877-12.834 25.943-0.4125 0.0314-0.75-0.14678-0.75-0.3959zm35.068-72.227c-0.0806-2.5966 5.8307-15.755 6.6913-14.894 0.32871 0.32871-0.5617 3.1799-1.9787 6.336s-3.0418 6.8634-3.6106 8.2384c-0.97467 2.3559-1.0382 2.3743-1.102 0.31977zm20.661-87.924c-0.33229-0.33229-1.1948-0.36782-1.9167-0.07895-0.79773 0.31923-0.56078 0.55618 0.60417 0.60417 1.0542 0.04342 1.6448-0.19293 1.3125-0.52522zm-6.9641-1.9641c-1.2436-1.2436-9.7496-3.2658-10.26-2.4393-0.29976 0.48502 1.3766 1.3119 3.7252 1.8376 5.1987 1.1636 7.2897 1.3561 6.5353 0.60168zm6.23-4.432c0-0.55 0.47656-1 1.059-1 0.58246 0 0.7809 0.45 0.44098 1s-0.81648 1-1.059 1c-0.24 0-0.44-0.45-0.44-1z" fill="#afafaf"/>
    <path id="path3155" d="m149 397c-18.539-1.6562-41.872-8.0638-58.768-16.139-9.2112-4.4021-10.704-5.5012-14.5-10.676-2.3274-3.1728-5.321-8.1128-6.6525-10.978-1.332-2.87-3.02-5.21-3.751-5.21s-1.329-0.9-1.329-2c0-1.3023-0.66667-2-1.9111-2-1.0511 0-3.0761-1.3845-4.5-3.0767-2.614-3.1-3.392-5.92-1.636-5.92 0.52442 0 0.18692-1.3704-0.75-3.0453-1.6205-2.8969-1.6141-3.0965 0.13063-4.0968 1.2307-0.70556 1.6557-1.7625 1.2918-3.2124-0.29829-1.1885 0.02808-4.4074 0.72527-7.1532 1.1386-4.4844 1.5744-5.0229 4.2829-5.2926 2.2381-0.22288 3.26-0.99614 3.9647-3 0.89555-2.5465 1.3169-2.7035 7.4254-2.767 6.6388-0.069 9.3777-0.72732 30.976-7.445 18.46-5.74 28.15-7.99 34.48-7.99 3.103 0 10.903-1.3106 17.333-2.9125 22.713-5.6581 35.286-7.8955 71.192-12.668 6.325-0.84081 16.45-2.6605 22.5-4.0437 19.276-4.4072 63.818-15.408 69-17.042 2.75-0.86686 16.7-7.1802 31-14.03 29.576-14.166 29.329-14.05 39.655-18.665 10.35-4.6258 29.37-17.252 34.619-22.982 6.1768-6.7424 11.156-14.847 19.342-31.48 3.9728-8.0726 8.4367-16.252 9.9198-18.177 1.483-1.925 2.993-4.4534 3.3556-5.6186 0.36256-1.1652 4.1351-5.6652 8.3835-10 6.0163-6.1387 10.266-9.3187 19.221-14.381 6.3233-3.575 13.411-8.2448 15.75-10.377 4.0778-3.7175 4.2532-4.1186 4.2532-9.7283 0-3.218 0.92225-11.525 2.0494-18.46 1.3336-8.2049 2.107-17.999 2.2142-28.04l0.16475-15.431 2.7648-2.6489c2.6859-2.5732 2.8867-2.6084 7.0358-1.2319l4.27 1.422-3.5 0.50003-3.5 0.50003 4.5 1.4062c2.475 0.77343 6.1569 1.3037 8.182 1.1784 4.3231-0.2675 7.818 1.3308 7.818 3.5755 0 1.2782 0.63695 1.4453 3.25 0.85239 6.2963-1.4286 7.2738-1.2253 6.974 1.4506-0.15179 1.3548-1.2768 3.5275-2.5 4.8283-1.9325 2.0551-2.2695 3.6795-2.571 12.392-0.43984 12.71 1.5353 42.349 3.0103 45.174 0.61514 1.1783 3.876 4.8423 7.2464 8.1423 3.5485 3.4744 7.3504 8.4652 9.0322 11.856 2.4842 5.0094 2.8906 6.9619 2.8102 13.5-0.20672 16.796-6.9962 47.806-14.421 65.863-3.096 7.5298-7.8749 16.727-11.804 22.716-3.6312 5.5353-7.842 12.202-9.3575 14.815-5.3589 9.2406-15.818 23.535-22.628 30.925-5.9831 6.4932-21.05 18.861-36.045 29.587-4.1129 2.942-36.522 18.45-72.997 34.93-13.185 5.9572-39.069 15.899-61 23.431-10.756 3.6937-35.539 9.018-57.5 12.353-18.033 2.7385-25.647 4.3244-50.588 10.537-8.5731 2.1355-19.373 4.3814-24 4.991-11.244 1.4812-42.103 2.0518-53.912 0.99671zm55-6.0339c4.125-0.60103 11.55-2.1506 16.5-3.4436 20.107-5.252 40.916-9.6658 57-12.09 24.202-3.648 43.223-7.7872 56.5-12.295 25.759-8.7454 48.29-17.37 62-23.733 7.975-3.7012 25.847-11.944 39.714-18.318 23.157-10.643 26.38-12.444 39.5-22.078 22.859-16.785 35.208-30.481 50.504-56.011 2.8008-4.675 7.1614-11.631 9.6902-15.458 11.182-16.921 22.595-58.14 22.578-81.542-0.005-6.4368-0.41399-8.2088-2.888-12.5-1.5855-2.75-5.4203-7.412-8.5218-10.36s-6.3039-6.6454-7.1164-8.2166c-1.927-3.7265-3.7222-29.514-3.2892-47.248l0.34-13.458-4.5-1.611c-2.475-0.88602-5.625-1.5987-7-1.5838l-2.5 0.02718 2.5 2.0001c1.6478 1.3183 3.4242 1.8332 5.2112 1.5105 3.4296-0.61929 4.6862 1.1774 1.6174 2.3126-1.7718 0.65544-3.7956 0.05046-8.8142-2.6349-3.5829-1.9171-7.0172-3.8843-7.6317-4.3716-0.6932-0.54962-1.5997-0.30471-2.388 0.6452-1.0444 1.2584-0.95471 1.8803 0.50344 3.4915 1.6193 1.7893 1.6314 2.0152 0.13801 2.5882-1.355 0.51995-1.6417 2.2849-1.6688 10.271-0.018 5.3037-0.48348 12.793-1.0344 16.643-0.55093 3.85-1.3516 12.364-1.7793 18.919l-0.77763 11.919-4.1424 3.6761c-2.2783 2.0218-10.744 7.6831-18.812 12.581-8.2362 4.9993-15.925 10.44-17.532 12.405-1.5744 1.925-4.6146 5.6766-6.756 8.337s-7.5857 12.316-12.098 21.457c-14.302 28.97-20.063 36.248-38.016 48.028-10.258 6.73-20.04 11.812-35.518 18.449-2.75 1.1793-12.2 5.7033-21 10.053-28.638 14.156-30.923 14.969-67.67 24.058-36.452 9.0164-46.014 11.132-54.83 12.13-3.025 0.34263-11.125 1.4616-18 2.4866s-15.425 2.1678-19 2.5396c-8.3757 0.87106-28.22 4.722-40.914 7.94-5.4715 1.387-12.342 2.5333-15.267 2.5474-6.6177 0.0319-17.48 2.4849-34.319 7.7499-7.15 2.2356-16.6 4.8733-21 5.8614-9.4499 2.1223-12.156 4.2762-11.675 9.292 0.17886 1.8638-0.32185 5.2297-1.1127 7.4799-3.6135 10.281-3.9493 13.916-1.7913 19.391 3.1986 8.1148 8.1972 16.355 12.593 20.759 7.7163 7.7311 39.359 18.013 62.986 20.467 10.272 1.0668 49.733 0.36511 59.5-1.0579zm243-149.35c0-0.20765 0.7875-0.99515 1.75-1.75 1.5861-1.2439 1.6214-1.2085 0.37756 0.37756-1.31 1.67-2.13 2.2-2.13 1.37zm6-5c0-0.20765 0.7875-0.99515 1.75-1.75 1.5861-1.2439 1.6214-1.2085 0.37756 0.37756-1.31 1.67-2.13 2.2-2.13 1.37zm22-33.563c0-0.51754 0.44485-1.2159 0.98855-1.5519 0.56686-0.35034 0.7345 0.0511 0.39301 0.94098-0.66 1.73-1.38 2.05-1.38 0.61zm5.064-8.1833c-0.22988-2.244 7.744-20.401 8.5886-19.557 0.33146 0.33145-1.3963 4.4755-7.163 17.181-0.7489 1.65-1.3904 2.7191-1.4256 2.3757zm14.81-29.38c0.54004-1.1 1.7147-2.9 2.6103-4 1.6284-2 1.6284-2 0.64655 0-0.54004 1.1-1.7147 2.9-2.6103 4-1.6284 2-1.6284 2-0.64655 0zm13.22-30.5c-0.0302-0.825 0.38124-2.175 0.9144-3 1.1813-1.828 1.1813-0.24909 0 2.5-0.56668 1.3187-0.87815 1.4891-0.9144 0.5zm12.681-63.5c0.2787-4.4 0.6703-8.1875 0.87022-8.4167 0.693-0.79438 0.16039 11.429-0.60641 13.917-0.42379 1.375-0.54251-1.1-0.26381-5.5zm10.23-23.5c-0.825-0.53316-2.625-0.92302-4-0.86637-2.3063 0.09502-2.2676 0.16214 0.5 0.86637 4.3225 1.0999 5.2019 1.0999 3.5 0zm-9.0866-2.9887c-2.5555-1.4945-9.8791-2.8759-10.439-1.9692-0.50437 0.81609 6.0832 2.6692 10.026 2.8204 1.6943 0.06496 1.7575-0.06513 0.41339-0.85116z" fill="#8f8f8f"/>
    <path id="path3153" d="m151 396.92c-17.78-1.34-44.23-8.34-61.27-16.22-8.722-4.03-14.645-10.17-19.73-20.43-1.925-3.886-3.8678-6.8411-4.3173-6.5668-0.44952 0.27432-1.0645-0.44651-1.3666-1.6018-0.302-1.15-1.187-2.1-1.966-2.1-0.77939 0-2.7519-1.3655-4.3834-3.0345-3-3.07-3.899-5.97-1.852-5.97 0.6708 0 0.44035-1.0297-0.57846-2.5846-1.4973-2.2852-1.5226-2.7775-0.21858-4.25 0.81119-0.91599 1.5104-3.4654 1.5537-5.6654 0.14225-7.2174 1.4076-9.9647 4.7432-10.298 2.2773-0.22777 3.2553-1.0196 4.1336-3.3464 1.0746-2.8469 1.4014-3.0066 4.951-2.4205 2.0903 0.34515 5.8255 0.17681 8.3005-0.37411 13.515-3.0082 17.781-4.1536 27.66-7.4254 14.256-4.7212 23.339-6.8021 31.593-7.2378 3.7142-0.19605 10.239-1.2373 14.5-2.314 17.326-4.3781 35.434-8.0414 47.247-9.5582 6.875-0.88276 13.175-1.7976 14-2.033 0.825-0.23537 5.775-0.92264 11-1.5273 15.113-1.7488 86.738-18.54 98.136-23.006 2.9504-1.1561 13.914-6.2793 24.364-11.385 10.45-5.1056 26.425-12.76 35.5-17.011 9.3891-4.3973 21.446-11.032 27.977-15.396 14.529-9.707 18.863-15.229 31.137-39.668 4.9721-9.9 10.051-19.35 11.287-21 1.2356-1.65 2.5086-3.675 2.8288-4.5 1.1866-3.0574 11.94-15.081 15.543-17.379 2.05-1.3075 8.1868-4.9643 13.637-8.1261 5.4505-3.1618 11.863-7.5489 14.25-9.7492 4.0345-3.7189 4.34-4.3611 4.3402-9.1231 0.0001-2.8174 0.97123-10.748 2.158-17.623 1.5474-8.964 2.1888-17.059 2.2671-28.617 0.1134-16.728 0.44618-18.173 4.7081-20.454 1.2503-0.66912 2.7985-0.499 5.0822 0.55848 3.2096 1.4862 3.2204 1.5122 0.47623 1.1444-2.159-0.28933-2.6764-0.03339-2.2387 1.1074 0.44143 1.1504 0.0189 1.3455-1.8807 0.86875-1.3475-0.3382-2.7016-0.2079-3.009 0.28956-0.30745 0.49746 1.6725 1.4398 4.3998 2.0941 3.8325 0.9194 5.7774 0.91944 8.5629 0.000129 4.7874-1.58 10.167-0.53384 11.016 2.1424 0.54269 1.7099 1.1961 1.9561 3.8064 1.434 6.6791-1.3359 7.1701-1.2363 6.8752 1.3955-0.15179 1.3548-1.2768 3.5267-2.5 4.8266-3.5339 3.7554-3.9163 20.299-1.1595 50.17l0.69592 7.5404 6.6198 6.5245c4.0287 3.9708 7.8919 9.0162 9.8698 12.89 2.7969 5.4784 3.25 7.3935 3.25 13.736 0 14.149-6.6874 46.79-12.661 61.797-4.9868 12.528-8.252 18.808-16.268 31.286-26.255 40.87-28.859 43.776-60.071 67.021-7.2897 5.4291-13.921 9.0913-28.5 15.74-10.45 4.7659-24.625 11.374-31.5 14.686-11.34 5.46-39.51 17.82-40.62 17.82-0.24783 0-9.5528 3.3638-20.678 7.4752-26.76 9.8895-44.545 14.178-83.227 20.068-6.05 0.92122-20.45 3.9372-32 6.7023-27.246 6.5225-33.254 7.5858-49.5 8.7607-15.038 1.0875-21.628 1.0719-37-0.0877zm49.006-5.3977c6.8716-0.81356 14.069-1.9523 15.994-2.5306 1.925-0.57828 12.05-3.0955 22.5-5.5938 18.151-4.3394 23.635-5.3732 47.5-8.955 25.865-3.8819 38.063-7.1584 70.5-18.938 22.969-8.3407 29.318-10.909 42.5-17.19 5.225-2.4898 19.373-9.0145 31.44-14.499 32.986-14.993 33.318-15.194 59.607-35.927 10.91-8.6045 27.017-28.379 33.731-41.413 1.1261-2.1861 4.5907-7.7592 7.6991-12.385 10.426-15.514 16.266-29.44 21.006-50.09 4.9482-21.555 7.045-37.846 5.6066-43.559-1.5977-6.345-5.3912-12.067-11.86-17.891-3.0241-2.7225-6.1083-6.4096-6.8538-8.1938-1.7665-4.2278-3.7158-34.552-3.1848-49.543 0.22769-6.4278 0.0661-11.472-0.35899-11.209-0.42514 0.26275-2.1138-0.21567-3.7527-1.0631-3.2-1.662-9.1-2.118-9.1-0.721 0 1.3053 4.7496 3.1532 8.297 3.2282 3.0012 0.06342 3.0635 0.13503 0.98823 1.1371-1.7988 0.86854-3.259 0.54105-7.7744-1.7436-3.9942-2.0209-5.2008-3.0716-4.2853-3.7314 0.8812-0.63506 0.69535-0.72974-0.60232-0.30686-1.0322 0.33637-2.5173 0.07998-3.3002-0.56976-2.0041-1.6633-5.3592 1.5107-3.5302 3.3397 1.3624 1.3624 1.6645 4.2078 0.36125 3.4024-0.46524-0.28754-1.1507 5.8734-1.5232 13.691-0.37 7.818-1.1 16.239-1.61 18.714-0.5133 2.475-0.95287 8.1454-0.97682 12.601-0.0543 10.099-1.1696 13.363-5.8484 17.118-3.69 2.97-24.77 16.28-25.78 16.28-0.29262 0-2.3144 1.4323-4.4928 3.1829-7.7636 6.239-15.125 16.88-24.779 35.817-10.195 20-17.206 31.017-23.161 36.397-7.9203 7.1555-23.135 16.306-40.482 24.346-9.9 4.5885-26.1 12.337-36 17.218-9.9 4.8814-20.254 9.7629-23.01 10.848-5.307 2.0896-68.442 17.955-81.99 20.603-4.4 0.86014-12.068 2.0129-17.039 2.5617-4.9714 0.54881-11.271 1.4158-14 1.9267-2.7286 0.51088-9.4611 1.445-14.961 2.0758-11.555 1.3253-30.837 5.0439-44.455 8.5732-5.2002 1.3477-11.95 2.4611-15 2.4742-6.632 0.0285-16.973 2.3489-34.545 7.7514-7.15 2.1983-16.375 4.7851-20.5 5.7485-8.9266 2.0847-11.726 4.3796-11.169 9.1545 0.21087 1.8063-0.37971 5.6551-1.3124 8.553-2.898 9.04-3.51 11.36-3.51 13.34 0 3.0156 8.6399 19.656 12.62 24.305 4.0279 4.7057 6.9378 6.3791 19.89 11.438 11.04 4.3121 30.969 9.4101 42.991 10.997 8.227 1.0863 46.068 0.57076 57.506-0.78342zm333.43-342.99c-1.07-0.808-3.52-1.448-5.44-1.423l-3.5 0.04505 4 1.3183c5.6169 1.8512 7.3371 1.872 4.9411 0.0598z" fill="#6f6f6f"/>
    <path id="path3151" d="m146.5 396.31c-13.25-1.17-38.16-7.87-52.291-14.05-13.249-5.8-17.46-9.55-23.263-20.7-2.446-4.69-5.008-8.54-5.696-8.55-0.6875-0.007-1.25-0.67828-1.25-1.4928s-1.0654-1.7483-2.3675-2.0752c-3.3742-0.84686-7.1327-6.1363-5.6391-7.9359 0.86886-1.0469 0.75294-1.9655-0.48681-3.8576-1.5004-2.2899-1.5008-2.5542-0.0051-3.3912 1.1904-0.66619 1.684-2.6211 1.8547-7.3462 0.28-7.75 0.889-8.91 4.684-8.91 2.2827 0 3.0592-0.54689 3.5494-2.5 0.3451-1.375 1.1412-2.5255 1.7691-2.5568 0.62788-0.0312 4.2916-0.18014 8.1416-0.33092 3.85-0.15079 7.9829-0.80025 9.1843-1.4432 1.202-0.64 3.149-1.17 4.329-1.17 1.1792 0 8.9713-2.2162 17.316-4.9248 17.103-5.5518 25.486-7.4992 30.836-7.1641 2.0154 0.12622 8.4987-0.93553 14.407-2.3594 22.821-5.4996 38.773-8.5175 60.928-11.527 26.263-3.5676 32.642-4.8238 66.5-13.095 43.951-10.736 43.166-10.477 65.5-21.683 6.05-3.0356 20.117-9.6917 31.26-14.791 22.204-10.162 41.536-21.798 48.169-28.994 6.1263-6.6463 12.542-17.081 19.865-32.309 7.0822-14.728 12.313-23.3 19.877-32.573 3.9878-4.8889 7.2557-7.34 18.753-14.066 7.6582-4.4797 15.594-9.7459 17.635-11.703 3.5379-3.3919 3.7427-3.9481 4.3945-11.934 0.37601-4.6072 1.3746-11.977 2.2191-16.377 1.2478-6.5011 2.1135-22.165 2.3022-41.652 0.0296-3.0544 5.3143-7.0699 7.9402-6.0332 1.4037 0.55417 1.3912 0.66514-0.10914 0.96811-1.0014 0.20222-1.469 0.93016-1.143 1.7795 0.32 0.783 0.07 1.43-0.54 1.43s-1.11-0.73-1.11-1.622c0-1.329-0.27-1.398-1.5-0.378-2.4034 1.9946-1.7433 3.556 1.6113 3.8117 1.7112 0.13039 3.8715 0.64394 4.8007 1.1412 1.0928 0.58483 3.2778 0.38126 6.1868-0.5764 5.0375-1.6584 9.9013-0.61611 9.9013 2.1218 0 1.3922-0.23484 1.3939-2.3363 0.01701-1.621-1.0621-3.3815-1.3166-5.75-0.83107l-3.4137 0.69973 3.5 0.89671c7.1643 1.8355 10.719 1.9158 13.821 0.312 1.69-0.875 3.55-1.592 4.13-1.592 1.5113 0 1.2937 4.6131-0.2924 6.1992-0.73814 0.73814-1.8027 2.2328-2.3656 3.3214-1.7238 3.3335-2.3736 19.309-1.3211 32.479 1.919 24.014 1.539 22.682 8.5585 29.999 8.5441 8.9058 12.471 15.604 13.181 22.484 1.2524 12.134-6.0654 49.004-13.401 67.518-5.0425 12.727-7.0604 16.538-15.354 29-3.1114 4.675-6.3893 9.921-7.2842 11.658-4.1544 8.0629-16.049 23.663-24.671 32.356-5.225 5.2681-15.767 14.255-23.426 19.97-12.593 9.3974-15.991 11.337-35.5 20.268-11.866 5.432-28.099 12.966-36.074 16.743-18.111 8.5761-25.935 11.774-53.5 21.864-28.429 10.407-44.517 14.337-82.5 20.156-7.975 1.2217-24.608 4.6666-36.962 7.6554-29.101 7.04-39.533 8.3708-63.974 8.1608-10.77-0.1-21.37-0.34-23.57-0.53zm54-4.4673c4.95-0.57251 19.873-3.69 33.163-6.9277 21.767-5.303 29.815-6.8728 51.337-10.013 19.773-2.8847 35.613-6.5422 51-11.776 27.019-9.1904 46.81-16.96 66.5-26.108 11.55-5.3658 29.574-13.656 40.054-18.424 17.18-7.8153 20.523-9.7655 34-19.83 8.2206-6.1394 18.335-14.561 22.477-18.714 7.6646-7.6851 19.515-23.518 25.413-33.953 1.7948-3.1754 5.9602-9.8394 9.2563-14.809 5.7215-8.6262 11.237-20.28 15.324-32.377 3.924-11.616 9.9751-44.07 9.9755-53.503 0.00029-7.3707-4.528-15.909-11.675-22.016-8.4838-7.2479-9.0458-9.1592-10.488-35.668-0.85451-15.709-0.92465-24.495-0.2291-28.701 0.69926-4.2281 0.68338-5.9534-0.0525-5.7043-0.58022 0.1964-2.503-0.24536-4.2728-0.98168-3.79-1.577-10.69-1.816-9.78-0.34 0.33992 0.55 0.14148 1-0.44098 1-0.58 0-1.06-0.662-1.06-1.471 0-1.856-6.0182-3.6102-7.75-2.259-1.5841 1.236-1.6088 3.9715-0.05 5.5304 0.93333 0.93333 0.84444 1.2-0.4 1.2-1.3842 0-1.6052 1.7869-1.6385 13.25-0.0212 7.2875-0.5162 15.674-1.1 18.636-0.58 2.963-1.06 9.083-1.06 13.604 0 4.5178-0.46605 9.5512-1.0357 11.185-1.2369 3.5481-7.0647 8.1418-21.078 16.614-15.979 9.6611-17.169 10.589-22.45 17.496-7.7729 10.168-9.3045 12.705-18.09 29.966-9.0774 17.835-13.952 25.553-20.202 31.987-6.0239 6.2013-25.149 18.349-38.242 24.289-6.2713 2.8454-15.677 7.1002-20.902 9.455s-12.425 5.8834-16 7.8412c-11.702 6.4087-28.311 13.323-38.5 16.028-28 7.4336-68.403 16.839-78.078 18.175-6.0072 0.8299-16.997 2.3837-24.422 3.4528-7.425 1.0692-15.975 2.2334-19 2.5871-7.5385 0.88157-26.76 4.8086-38.604 7.887-5.3929 1.4016-12.385 2.5485-15.538 2.5485-7.0453 0-15.248 1.8561-30.689 6.9445-6.518 2.1479-13.61 4.2068-15.76 4.5753-13.224 2.2668-19.315 5.7602-18.595 10.666 0.2221 1.5132-0.13051 4.2281-0.78357 6.033-1.949 5.35-4.04 13.71-4.04 16.1 0 2.687 5.6654 14.743 10.212 21.73 1.8695 2.8733 5.2299 6.2515 7.7883 7.8297 13.355 8.2384 44.467 16.783 66 18.127 14.207 0.88646 36.212 0.36593 49.5-1.1709zm327.5-335.84c0-0.55 1.1516-1 2.559-1 1.4514 0 2.2915 0.43284 1.941 1-0.33992 0.55-1.4915 1-2.559 1-1.07 0-1.94-0.45-1.94-1z" fill="#4e4e4e"/>
    <path id="path3149" d="m146.5 395.89c-12.78-1.18-38.01-7.77-51.5-13.45-13.706-5.77-18.477-10.05-24.298-21.78-2.125-4.29-4.437-7.66-5.25-7.66-0.798 0-1.452-0.9-1.452-2 0-1.26-0.667-2-1.813-2-1.71 0-7.187-4.8-7.187-6.3 0-0.39 0.675-0.7 1.5-0.7s1.5-0.3949 1.5-0.87756c0-0.48265-0.675-1.4378-1.5-2.1224-1.765-1.4648-1.9904-4.6699-0.36637-5.2112 0.67473-0.22491 1.1948-3.1157 1.2847-7.1412 0.16026-7.1753 1.0463-8.6032 5.3564-8.6322 1.4629-0.01 2.5955-0.85885 3.1734-2.3789 1.1183-2.9414 3.0613-3.7327 6.7172-2.7356 1.7053 0.46508 5.0259 0.22689 8.3346-0.59784 3.025-0.75401 8.2-2.0018 11.5-2.7728 3.3-0.77101 10.05-2.8026 15-4.5147 12.696-4.391 24.074-7.0003 30.562-7.0085 3.0589-0.004 8.9089-0.87505 13-1.936 15.238-3.9516 39.846-8.9111 52.438-10.568 7.15-0.94099 17.539-2.3174 23.086-3.0587 9.7104-1.2976 36.011-6.807 47.414-9.9321 3.025-0.82903 13.317-3.3512 22.87-5.6049 22.68-5.35 23.867-5.7881 51.261-18.918 12.852-6.1602 25.168-12.017 27.368-13.016 17.823-8.0908 24.551-11.68 35.112-18.73 9.8531-6.5779 13.068-9.359 17.24-14.914 4.9403-6.5782 17.469-29.109 20.201-36.329 0.72851-1.925 2.4772-5.2503 3.886-7.3896s3.2364-5.1409 4.0614-6.6702c0.825-1.5294 4.481-6.0934 8.1245-10.142 5.5267-6.1417 8.663-8.5158 18.925-14.326 6.7653-3.8303 14.247-8.7659 16.627-10.968l4.3263-4.0038 1.02-11c0.56102-6.05 1.4854-12.8 2.0542-15s1.2968-12.675 1.6178-23.277c0.32098-10.602 0.88951-19.466 1.2634-19.697 0.3739-0.23108 0.55496 1.0186 0.40235 2.777-0.1526 1.7585-0.0279 2.3562 0.27714 1.3284 0.6508-2.1929 3.5622-1.9377 14.862 1.303 8.5148 2.4419 12.8 2.5704 15.991 0.47954 2.46-1.61 4.51-1.227 4.51 0.841 0 0.62548-1.1737 2.8308-2.6082 4.9008-3.3716 4.8652-4.0412 14.436-2.5081 35.844 1.6034 22.39 1.5123 22.06 7.7932 28.194 7.1912 7.0227 13.039 16.875 13.834 23.306 0.77229 6.2481-1.3716 21.471-5.8845 41.783-4.3098 19.398-11.397 36.822-21.172 52.056-3.8252 5.9611-9.5967 14.961-12.826 20-7.8562 12.26-19.226 26.316-25.782 31.874-2.9409 2.4928-11.375 9.0598-18.744 14.593-12.772 9.5916-14.917 10.767-46 25.218-37.273 17.328-55.067 24.896-80.68 34.316-24.656 9.0672-43.087 13.448-82.803 19.682-7.6339 1.1982-23.834 4.6258-36 7.6169-12.302 3.0244-27.666 6.0871-34.614 6.9-13.333 1.56-36.751 1.7202-51.506 0.35245zm56.2-3.8608c3.9599-0.52934 18.135-3.6172 31.5-6.8618 13.365-3.2447 30.825-6.8843 38.8-8.0881 37.82-5.7087 48.71-8.3772 80.5-19.725 25.264-9.0184 26.544-9.5409 50-20.415 11.55-5.3544 29.045-13.399 38.877-17.877 18.576-8.4601 20.642-9.6693 34.939-20.452 22.368-16.87 28.627-23.393 41.37-43.111 20.388-31.548 22.315-34.904 27.165-47.295 6.8432-17.485 13.096-46.889 13.132-61.759 0.0225-9.075-2.9728-15.357-10.799-22.65-8.9211-8.3131-9.3631-9.3434-10.401-24.247-0.9925-14.246-1.1639-41.772-0.27745-44.565 0.41703-1.3139-0.13659-1.8809-2.2248-2.2782-1.54-0.294-6.84-1.418-11.79-2.5-9.3-2.034-11.5-1.707-11.5 1.712 0 0.923 0.54 2.218 1.2 2.878 0.93333 0.93333 0.82222 1.2-0.5 1.2-1.508 0-1.7 1.3912-1.7 12.316 0 6.774-0.45769 14.792-1.0171 17.818-0.55939 3.026-1.2016 9.9712-1.4271 15.434-0.2255 5.4625-0.70286 10.832-1.0608 11.932-0.82757 2.5433-6.6875 6.884-20.247 14.998-5.9115 3.5373-11.423 7.0601-12.248 7.8285-0.825 0.76832-2.4902 1.9131-3.7004 2.544-1.9052 0.99321-7.6948 8.2295-14.905 18.63-1.1439 1.65-5.498 9.7501-9.6758 18-8.4973 16.78-13.722 25.284-19.385 31.552-5.1066 5.6524-25.463 19.189-36.207 24.078-4.7444 2.1585-11.322 5.1498-14.618 6.6472-3.2954 1.4975-13.195 6.2626-22 10.589-29.056 14.278-30.857 14.912-69.69 24.523-36.53 9.041-42.796 10.299-70.318 14.123-30.794 4.2785-41.78 6.1896-57.68 10.034-8.976 2.1705-18.57 3.9479-21.32 3.9497-6.5029 0.004-15.459 2.0134-28.63 6.4222-5.8468 1.9571-13.722 4.2303-17.5 5.0515-16.201 3.5213-17.642 4.5353-17.997 12.665-0.11132 2.5495-0.91562 6.0146-1.7873 7.7003-0.867 1.7-1.58 3.78-1.58 4.63s-0.367 1.55-0.816 1.55c-0.44906 0-0.5009 2.6764-0.1152 5.9475 0.74854 6.3485 6.302 17.945 12.099 25.264 7.1894 9.0774 40.616 20.408 67.332 22.823 10.789 0.97539 46.11 0.34374 56.2-1.005zm326.3-336.03c0-0.55 0.70156-1 1.559-1 0.85746 0 1.2809 0.45 0.94098 1s-1.0415 1-1.559 1c-0.52 0-0.94-0.45-0.94-1zm-465.5 291c0.33992-0.55-0.08352-1-0.94098-1-0.857 0-1.559 0.45-1.559 1s0.42344 1 0.94098 1 1.2191-0.45 1.559-1zm3.2308-17.166c-1.2528-0.77425-4.1605 1.07-3.2005 2.0299 0.3182 0.3182 0.99718-0.0834 1.5089-0.8925 0.75553-1.1947 0.93607-1.0953 0.96094 0.52896 0.02491 1.6267 0.20456 1.725 0.96253 0.52639 0.61096-0.96611 0.53114-1.7213-0.23177-2.1928zm465.3-283.56c-1.3106-1.4759-1.2751-1.5786 0.33178-0.96196 0.99 0.379 1.99 0.69 2.22 0.69s0.42 0.45 0.42 1c0 1.4712-1.2966 1.1529-2.9672-0.72839zm-7.1795-0.52486c0.50384-0.50385 1.9805-0.74865 3.2814-0.544 2.0017 0.31488 1.8608 0.45572-0.91608 0.91608-1.9872 0.32944-2.9201 0.18269-2.3653-0.37208zm-10.85-3.747c0-0.55 0.45-1 1-1s1 0.45 1 1-0.45 1-1 1-1-0.45-1-1z" fill="#2c2c2c"/>
    <path id="path3147" d="m153.9 395.94c-27.375-1.9574-62.686-12.855-74.067-22.859-3.2734-2.8773-5.9222-6.6576-8.8625-12.648-2.3065-4.6996-4.4362-8.3021-4.7327-8.0056-0.87397 0.87397-3.1989-4.3639-2.6138-5.8886 0.38664-1.0076-0.04286-1.2448-1.5433-0.85244-1.144 0.3-2.08 0.94-2.08 1.42 0 0.48047-0.9 0.10298-2-0.83887-2.227-1.9068-2.6032-3.9002-0.84664-4.4858 0.78133-0.26044 0.55732-1.2941-0.69444-3.2046-1.7839-2.7225-1.785-2.866-0.03213-4.1478 1.3325-0.97431 1.6382-2.0346 1.149-3.9841-0.3667-1.461-0.37016-4.634-0.0077-7.0511 0.594-3.96 0.93-4.4 3.391-4.4 2.613 0 6.041-2.61 6.041-4.6 0-0.51927 3.375-0.97377 7.5-1.01 4.125-0.0362 7.5 0.0692 7.5 0.23432 0 0.1651-1.751 0.77168-3.891 1.3479-4.6027 1.2394-6.6532 4.0513-6.9489 9.5294-0.23522 4.3571-3.1573 12.49-4.4897 12.496-1.6513 0.007 0.6024 13.536 3.0825 18.504 4.5719 9.1577 10.43 17.172 14.464 19.788 6.9568 4.5108 25.795 11.389 40.283 14.708 17.1 3.9172 39.271 5.3278 61.933 3.9404 18.052-1.1051 20.864-1.5959 49.516-8.6411 20.698-5.0894 27.305-6.3509 49.051-9.3646 15.594-2.1612 33.631-6.1851 46.339-10.338 17.326-5.6623 46.774-16.234 53.535-19.219 2.9559-1.305 5.8809-2.3548 6.5-2.3327 5.0844 0.18085-56.394 23.207-70.825 26.527-15.294 3.5184-37.76 7.8123-52.049 9.948-6.6 0.98649-22.125 4.2275-34.5 7.2022s-27.225 6.0228-33 6.7734c-13.706 1.7816-33.825 2.4022-47.102 1.4528zm-86.294-67.19c0.058-2.06-0.017-3.75-0.168-3.75-0.453 0-4.438 6.68-4.438 7.44 0 0.38584 1.0125 0.55772 2.25 0.38197 1.8531-0.26318 2.2687-0.98112 2.3561-4.0696zm326.43 13.83c0.8-0.78 16.08-8.05 33.96-16.15 17.875-8.0979 34.075-15.872 36-17.276 25.823-18.829 35.126-26.519 41.189-34.045 8.4641-10.506 14.975-19.867 21.285-30.601 3.2296-5.494 7.3152-12.019 9.079-14.5 10.031-14.109 18.146-39.345 22.998-71.511 2.7532-18.254 0.97029-24.236-10.553-35.408-3.74-3.6258-7.2936-7.5734-7.897-8.7725-1.5508-3.0815-3.4114-35.485-2.8699-49.978 0.35545-9.5132 0.18009-12.053-0.80603-11.675-0.69317 0.266-2.535-0.21302-4.093-1.0645l-2.83-1.556 3.1282 0.5735c2.0509 0.37599 4.7356-0.13749 7.7953-1.491 4.0858-1.8073 4.7407-1.8724 5.2587-0.52256 0.32542 0.84804-0.37394 2.7442-1.5542 4.2138-1.1802 1.4696-2.6291 3.7969-3.2198 5.1719-1.5482 3.6038-1.2826 30.463 0.43381 43.873l1.4557 11.373 6.5042 6.627c3.5773 3.6449 7.8978 9.2779 9.6011 12.518 2.6217 4.9869 3.0963 6.9816 3.0929 13-0.005 8.3948-1.83 20.143-5.9584 38.351-4.7261 20.844-10.861 35.336-22.901 54.1-26.24 40.891-28.1 42.992-57.807 65.278-9.4219 7.0682-14.275 9.7868-31 17.364-10.906 4.9411-26.487 12.254-34.625 16.25-14.673 7.206-18.566 8.6582-15.669 5.8442zm-307.04-31.58c0.825-0.53316 2.7369-0.97627 4.2486-0.98469 1.5117-0.008 7.5385-1.601 13.393-3.5392 5.8543-1.9381 10.833-3.3348 11.064-3.1038 0.75321 0.7532-24.124 8.6281-27.207 8.6123-2.304-0.01-2.651-0.24-1.499-0.98zm35-10c1.375-0.44035 3.625-0.81387 5-0.83003 2.2726-0.0267 2.3181 0.0488 0.5 0.83003-1.1 0.47269-3.35 0.8462-5 0.83003-2.9254-0.0287-2.9378-0.0493-0.5-0.83003zm8.7832-1.1552c-1.5614-0.99076-2.0028-0.90543 7.5989-1.4691 4.3352-0.25451 12.21-1.5223 17.5-2.8173 16.628-4.0707 32.326-7.3336 40.618-8.4426 4.4-0.58849 12.725-1.7314 18.5-2.5398s12.975-1.7645 16-2.1247c6.0607-0.7216 21.789-4.1856 50-11.012 40.861-9.8874 40.701-9.8326 68.5-23.487 7.7-3.7822 21.765-10.461 31.255-14.841 15.721-7.2564 21.207-10.348 36.936-20.818 9.2249-6.1405 22.454-26.365 30.352-46.401 2.6106-6.623 11.49-20.055 17.596-26.615 3.3854-3.6379 8.9364-7.5625 18.285-12.927 7.3828-4.2371 15.145-9.4782 17.25-11.647 3.617-3.7271 3.8266-4.2897 3.8266-10.272 0-3.4808 0.9098-11.043 2.0218-16.805 1.112-5.7622 2.1619-14.335 2.3331-19.051 0.17124-4.7157 0.61143-8.874 0.97822-9.2408 1.0198-1.0198 0.76097 11.09-0.45232 21.166-0.59601 4.95-1.2402 13.748-1.4314 19.551-0.19128 5.8032-0.79748 11.734-1.3471 13.18-0.97923 2.5755-17.95 14.604-27.94 19.805-2.3857 1.2418-4.5648 2.8496-4.8424 3.573s-1.3826 1.5939-2.4556 1.9345c-1.6596 0.52673-5.6373 5.218-15.649 18.457-1.0399 1.375-5.8417 10.15-10.671 19.5-13.544 26.223-17.671 31.283-35.002 42.914-10.021 6.7246-12.1 7.8033-34.042 17.657-6.6 2.964-17.175 8.0335-23.5 11.265-23.041 11.774-29.622 14.244-55.082 20.675-38.185 9.6455-55.675 13.622-65.418 14.872-33.616 4.3139-61.357 8.9182-76 12.614-13.603 3.4333-23.543 4.7271-25.717 3.3476zm378.86-247.09c-0.32397-1.2375-0.039-3.5131 0.63337-5.057 1.1005-2.5271 1.5714-2.7432 4.7224-2.1672 1.925 0.3519 4.85 1.2514 6.5 1.999 1.65 0.74753 4.125 1.549 5.5 1.781 2.0223 0.34125 1.8681 0.44787-0.80718 0.55803-1.819 0.0749-5.3266-0.37231-7.7947-0.99379-3.9591-0.99692-4.6426-0.9179-5.8045 0.67104-0.72431 0.99056-1.1017 2.624-0.83865 3.63 0.27 1.006 0.03 1.829-0.52 1.829s-1.2651-1.0125-1.589-2.25z" fill="#111"/>
  </g>
  <metadata>
    <rdf:RDF>
      <cc:Work>
        <dc:format>image/svg+xml</dc:format>
        <dc:type rdf:resource="http://purl.org/dc/dcmitype/StillImage"/>
        <cc:license rdf:resource="http://creativecommons.org/licenses/publicdomain/"/>
        <dc:publisher>
          <cc:Agent rdf:about="http://openclipart.org/">
            <dc:title>Openclipart</dc:title>
          </cc:Agent>
        </dc:publisher>
        <dc:title>Single line art Banana</dc:title>
        <dc:date>2013-05-05T16:53:28</dc:date>
        <dc:description>Single Banana line art made in GNU/Linux with Inkscape &amp; Mypaint</dc:description>
        <dc:source>http://openclipart.org/detail/177814/single-line-art-banana-by-child_of_light-177814</dc:source>
        <dc:creator>
          <cc:Agent>
            <dc:title>Child_of_Light</dc:title>
          </cc:Agent>
        </dc:creator>
        <dc:subject>
          <rdf:Bag>
            <rdf:li>art</rdf:li>
            <rdf:li>banana</rdf:li>
            <rdf:li>bananas</rdf:li>
            <rdf:li>black</rdf:li>
            <rdf:li>coloring</rdf:li>
            <rdf:li>colouring</rdf:li>
            <rdf:li>food</rdf:li>
            <rdf:li>fruit</rdf:li>
            <rdf:li>gnu</rdf:li>
            <rdf:li>health</rdf:li>
            <rdf:li>inkscape</rdf:li>
            <rdf:li>line</rdf:li>
            <rdf:li>linux</rdf:li>
            <rdf:li>monkey</rdf:li>
            <rdf:li>mypaint</rdf:li>
            <rdf:li>page</rdf:li>
            <rdf:li>primate</rdf:li>
            <rdf:li>white</rdf:li>
          </rdf:Bag>
        </dc:subject>
      </cc:Work>
      <cc:License rdf:about="http://creativecommons.org/licenses/publicdomain/">
        <cc:permits rdf:resource="http://creativecommons.org/ns#Reproduction"/>
        <cc:permits rdf:resource="http://creativecommons.org/ns#Distribution"/>
        <cc:permits rdf:resource="http://creativecommons.org/ns#DerivativeWorks"/>
      </cc:License>
    </rdf:RDF>
  </metadata>
</svg>
