<?xml version="1.0" encoding="UTF-8" standalone="no"?>
<!DOCTYPE svg PUBLIC "-//W3C//DTD SVG 1.1//EN" "http://www.w3.org/Graphics/SVG/1.1/DTD/svg11.dtd">
<svg version="1.1" xmlns="http://www.w3.org/2000/svg" xmlns:xlink="http://www.w3.org/1999/xlink" preserveAspectRatio="xMidYMid meet" viewBox="0 0 640 640" width="640" height="640"><defs><path d="M114.29 260.93C51.96 260.93 1.43 214.88 1.43 158.08C1.43 101.27 51.96 55.22 114.29 55.22C176.61 55.22 227.14 101.27 227.14 158.08C227.14 214.88 176.61 260.93 114.29 260.93Z" id="cGd36LQqr"></path><path d="M72.49 54.7C64.31 47.36 55.14 41.24 46.14 34.98C39.36 30.58 32.81 25.69 25.24 22.75C21.07 21.55 16.7 20.89 12.53 22.32C5.96 25.3 -4.01 30.99 27.24 13.76C27.57 13.58 26.64 14.24 26.44 14.56C25.78 15.6 25.7 16.61 25.46 17.79C25.3 20.8 24.18 24.52 25.95 27.29C26.31 27.85 26.81 28.29 27.24 28.79C33.21 34.12 41.52 35.27 49.11 36.71C60.11 38.58 71.17 40.18 82.27 41.25C89.65 41.43 96.91 42.45 104.17 43.64C108.11 44.51 110.96 45.14 112.89 48.91C113.95 51.65 114.45 54.51 114.75 57.43C115.16 61.25 119.1 61.33 122.17 61.67C131.45 62.28 140.75 62.18 150.04 62.21C162.46 62.51 174.85 61.99 187.26 61.49C198.74 60.77 210.22 60.05 221.71 59.47C224.12 59.36 225.86 59.29 228.21 59.16C228.81 59.13 229.41 59.09 230 59.04C230.31 59.02 231.17 58.78 230.92 58.95C212.72 71.61 219.66 73.05 210.87 70.61C203.01 68.89 195.03 68.14 187.01 67.59C168.3 66.4 149.55 66.95 130.85 67.96C132.42 66.81 144.99 57.59 146.56 56.44C165.46 55.7 184.37 55.19 203.28 55.91C211.62 56.31 219.94 56.96 228.14 58.64C236.73 60.13 231.24 58.69 213.78 71.5C213.57 71.66 213.27 71.48 213.01 71.48C211.76 71.46 209.93 71.47 208.78 71.49C207.58 71.51 206.39 71.55 205.19 71.58C193.79 71.94 182.41 72.63 171.03 73.39C158.59 73.9 146.15 74.16 133.7 74.08C124.18 74.12 114.64 74.3 105.13 73.71C101.06 73.09 96.74 71.91 96.08 67.18C95.83 64.5 95.35 61.91 94.48 59.37C93.18 56.56 89.83 56.29 87.12 55.58C79.99 54.28 72.83 53.5 65.58 53.11C54.54 51.77 43.55 50.01 32.57 48.26C24.4 46.72 15.58 45.55 9.3 39.58C8.75 38.92 8.12 38.33 7.66 37.61C5.59 34.43 6.47 30.57 6.59 27.04C6.68 26.3 6.99 22.14 7.62 21.72C15.16 16.77 21.11 11.57 29.29 9.54C33.82 8.93 38.28 9.58 42.57 11.19C49.96 14.61 56.41 19.64 63.16 24.13C72.24 30.5 81.43 36.77 90.02 43.79C94.22 47.28 98.54 50.9 103.54 53.17C102.36 53.95 96.46 57.83 85.84 64.81C79.68 60.57 75.23 57.2 72.49 54.7Z" id="b18QXBW3Z2"></path><path d="M99.6 56.71C99.89 52.25 100.86 47.89 101.78 43.53C102.59 39.3 102.93 35.05 104.6 31.05C106.48 27.15 109.57 24.45 113.05 22.04C119.48 18.39 126.94 12.35 134.9 10.15C137.28 9.48 139.66 8.93 141.97 8.05C145.15 6.77 148.57 6.49 151.95 6.27C154.86 5.07 157.77 3.81 160.78 2.88C162.73 2.32 164.75 2.13 166.77 1.97C165.08 3.23 151.52 13.3 149.82 14.56C147.89 14.82 145.97 15.14 144.13 15.83C141.14 16.94 138.18 18.32 135.01 18.79C131.7 19.12 128.46 19.73 125.36 20.98C123.04 21.69 120.64 22.23 118.36 23.07C112.59 25.23 99.19 34.01 132.61 14.42C129.11 16.51 125.84 18.82 123.7 22.39C121.57 26.09 121.41 30.3 120.57 34.43C119.68 38.73 118.76 43.02 118.36 47.4C117.9 51.39 117.78 55.37 118.02 59.38C116.76 60.02 110.46 63.23 99.12 69.01C99.17 63.54 99.33 59.44 99.6 56.71Z" id="dpCJhP1RX"></path></defs><g><g><g><use xlink:href="#cGd36LQqr" opacity="1" fill="#a3ff00" fill-opacity="1"></use><g><use xlink:href="#cGd36LQqr" opacity="1" fill-opacity="0" stroke="#000000" stroke-width="1" stroke-opacity="0"></use></g></g><g><use xlink:href="#b18QXBW3Z2" opacity="1" fill="#008000" fill-opacity="1"></use><g><use xlink:href="#b18QXBW3Z2" opacity="1" fill-opacity="0" stroke="#000000" stroke-width="1" stroke-opacity="0"></use></g></g><g><use xlink:href="#dpCJhP1RX" opacity="1" fill="#552200" fill-opacity="1"></use><g><use xlink:href="#dpCJhP1RX" opacity="1" fill-opacity="0" stroke="#000000" stroke-width="1" stroke-opacity="0"></use></g></g></g></g></svg>